<svg width="48" height="48" viewBox="0 0 48 48" fill="none" xmlns="http://www.w3.org/2000/svg">
<g id="carbon:ibm-process-mining">
<path id="Vector" d="M39 33C36.213 33 33.885 34.92 33.213 37.5H14.787C14.517 36.4693 13.9777 35.5291 13.2243 34.7757C12.4709 34.0223 11.5307 33.483 10.5 33.213V28.5C10.5 26.8455 11.8455 25.5 13.5 25.5H34.5C37.809 25.5 40.5 22.809 40.5 19.5V14.787C43.08 14.1165 45 11.787 45 9C45 5.691 42.309 3 39 3C35.691 3 33 5.691 33 9C33 11.787 34.92 14.115 37.5 14.787V19.5C37.5 21.1545 36.1545 22.5 34.5 22.5H13.5C10.191 22.5 7.5 25.191 7.5 28.5V33.213C4.92 33.8835 3 36.213 3 39C3 42.309 5.691 45 9 45C11.787 45 14.115 43.08 14.787 40.5H33.213C33.8835 43.08 36.213 45 39 45C42.309 45 45 42.309 45 39C45 35.691 42.309 33 39 33ZM36 9C36 7.3455 37.3455 6 39 6C40.6545 6 42 7.3455 42 9C42 10.6545 40.6545 12 39 12C37.3455 12 36 10.6545 36 9ZM9 42C7.3455 42 6 40.6545 6 39C6 37.3455 7.3455 36 9 36C10.6545 36 12 37.3455 12 39C12 40.6545 10.6545 42 9 42ZM39 42C37.3455 42 36 40.6545 36 39C36 37.3455 37.3455 36 39 36C40.6545 36 42 37.3455 42 39C42 40.6545 40.6545 42 39 42Z" fill="white"/>
<path id="Vector_2" d="M9 15C10.11 15 11.136 14.6775 12.0285 14.1495L17.379 19.5L19.5 17.379L14.1495 12.0285C14.7007 11.1141 14.9946 10.0677 15 9C15 5.691 12.309 3 9 3C5.691 3 3 5.691 3 9C3 12.309 5.691 15 9 15ZM9 6C10.6545 6 12 7.3455 12 9C12 10.6545 10.6545 12 9 12C7.3455 12 6 10.6545 6 9C6 7.3455 7.3455 6 9 6Z" fill="white"/>
</g>
</svg>
