<svg width="24" height="25" viewBox="0 0 24 25" fill="none" xmlns="http://www.w3.org/2000/svg">
<g id="Icon / Facebook">
<path id="Vector" d="M16.5 6.37891H13.5C12.9477 6.37891 12.5 6.82663 12.5 7.37891V10.3789H16.5C16.6137 10.3764 16.7216 10.4293 16.7892 10.5208C16.8568 10.6123 16.8758 10.7309 16.84 10.8389L16.1 13.0389C16.0318 13.2408 15.8431 13.3773 15.63 13.3789H12.5V20.8789C12.5 21.155 12.2761 21.3789 12 21.3789H9.5C9.22386 21.3789 9 21.155 9 20.8789V13.3789H7.5C7.22386 13.3789 7 13.155 7 12.8789V10.8789C7 10.6028 7.22386 10.3789 7.5 10.3789H9V7.37891C9 5.16977 10.7909 3.37891 13 3.37891H16.5C16.7761 3.37891 17 3.60277 17 3.87891V5.87891C17 6.15505 16.7761 6.37891 16.5 6.37891Z" fill="white"/>
</g>
</svg>
