<svg width="24" height="25" viewBox="0 0 24 25" fill="none" xmlns="http://www.w3.org/2000/svg">
<g id="Icon / Instagram">
<path id="Vector" fill-rule="evenodd" clip-rule="evenodd" d="M16 3.37891H8C5.23858 3.37891 3 5.61749 3 8.37891V16.3789C3 19.1403 5.23858 21.3789 8 21.3789H16C18.7614 21.3789 21 19.1403 21 16.3789V8.37891C21 5.61749 18.7614 3.37891 16 3.37891ZM19.25 16.3789C19.2445 18.1715 17.7926 19.6234 16 19.6289H8C6.20735 19.6234 4.75549 18.1715 4.75 16.3789V8.37891C4.75549 6.58626 6.20735 5.1344 8 5.12891H16C17.7926 5.1344 19.2445 6.58626 19.25 8.37891V16.3789ZM16.75 8.62891C17.3023 8.62891 17.75 8.18119 17.75 7.62891C17.75 7.07663 17.3023 6.62891 16.75 6.62891C16.1977 6.62891 15.75 7.07663 15.75 7.62891C15.75 8.18119 16.1977 8.62891 16.75 8.62891ZM12 7.87891C9.51472 7.87891 7.5 9.89363 7.5 12.3789C7.5 14.8642 9.51472 16.8789 12 16.8789C14.4853 16.8789 16.5 14.8642 16.5 12.3789C16.5027 11.1846 16.0294 10.0385 15.1849 9.19399C14.3404 8.3495 13.1943 7.87625 12 7.87891ZM9.25 12.3789C9.25 13.8977 10.4812 15.1289 12 15.1289C13.5188 15.1289 14.75 13.8977 14.75 12.3789C14.75 10.8601 13.5188 9.62891 12 9.62891C10.4812 9.62891 9.25 10.8601 9.25 12.3789Z" fill="white"/>
</g>
</svg>
