<svg width="24" height="25" viewBox="0 0 24 25" fill="none" xmlns="http://www.w3.org/2000/svg">
<g id="Icon / LinkedIn">
<path id="Vector" fill-rule="evenodd" clip-rule="evenodd" d="M5 3.37891H19C20.1046 3.37891 21 4.27434 21 5.37891V19.3789C21 20.4835 20.1046 21.3789 19 21.3789H5C3.89543 21.3789 3 20.4835 3 19.3789V5.37891C3 4.27434 3.89543 3.37891 5 3.37891ZM8 18.3789C8.27614 18.3789 8.5 18.155 8.5 17.8789V10.8789C8.5 10.6028 8.27614 10.3789 8 10.3789H6.5C6.22386 10.3789 6 10.6028 6 10.8789V17.8789C6 18.155 6.22386 18.3789 6.5 18.3789H8ZM7.25 9.37891C6.42157 9.37891 5.75 8.70734 5.75 7.87891C5.75 7.05048 6.42157 6.37891 7.25 6.37891C8.07843 6.37891 8.75 7.05048 8.75 7.87891C8.75 8.70734 8.07843 9.37891 7.25 9.37891ZM17.5 18.3789C17.7761 18.3789 18 18.155 18 17.8789V13.2789C18.0325 11.6897 16.8576 10.3334 15.28 10.1389C14.177 10.0382 13.1083 10.5533 12.5 11.4789V10.8789C12.5 10.6028 12.2761 10.3789 12 10.3789H10.5C10.2239 10.3789 10 10.6028 10 10.8789V17.8789C10 18.155 10.2239 18.3789 10.5 18.3789H12C12.2761 18.3789 12.5 18.155 12.5 17.8789V14.1289C12.5 13.3005 13.1716 12.6289 14 12.6289C14.8284 12.6289 15.5 13.3005 15.5 14.1289V17.8789C15.5 18.155 15.7239 18.3789 16 18.3789H17.5Z" fill="white"/>
</g>
</svg>
