<svg width="133" height="53" viewBox="0 0 133 53" fill="none" xmlns="http://www.w3.org/2000/svg">
<g id="Group">
<g id="Group_2">
<path id="Vector" d="M59.7811 48.3528L59.6799 49.1544H58.6579L58.2734 52.3509H57.302L57.6865 49.1544H56.6646L56.7657 48.3528H59.7811Z" fill="white"/>
<path id="Vector_2" d="M63.8388 48.3528L63.3531 52.3509H62.3918L62.5942 50.7476H61.0865L60.8841 52.3509H59.9229L60.4085 48.3528H61.3698L61.1877 49.8851H62.6954L62.8775 48.3528H63.8388Z" fill="white"/>
<path id="Vector_3" d="M65.7007 48.3528L65.215 52.3509H64.2437L64.7293 48.3528H65.7007Z" fill="white"/>
<path id="Vector_4" d="M70.3551 48.3528L69.8694 52.3509H68.3718L67.4409 49.3168H67.4106L67.0362 52.3509H66.1255L66.6112 48.3528H68.1189L69.0296 51.3463H69.0801L69.4444 48.3528H70.3551Z" fill="white"/>
<path id="Vector_5" d="M74.3925 48.3528L72.8747 50.2808L74.0282 52.3509H72.8342L71.9943 50.707H71.8931L71.6908 52.3509H70.7295L71.2152 48.3528H72.1765L71.9943 49.8952H72.1056L73.249 48.3528H74.3925Z" fill="white"/>
<path id="Vector_6" d="M78.9863 51.5087L78.8851 52.3509H76.1328L76.6185 48.3528H77.5899L77.2054 51.5087H78.9863Z" fill="white"/>
<path id="Vector_7" d="M83.0645 49.9256L82.9633 50.778C82.8925 51.3767 82.7306 51.7928 82.4878 52.0363C82.2449 52.2798 81.8402 52.4016 81.2938 52.4016H80.7676C80.292 52.4016 79.9581 52.3103 79.7557 52.1378C79.5533 51.9653 79.4521 51.671 79.4521 51.255C79.4521 51.1129 79.4623 50.9505 79.4825 50.778L79.5837 49.9256C79.6545 49.3269 79.8164 48.9109 80.0593 48.6673C80.3021 48.4238 80.6967 48.302 81.2533 48.302H81.7794C82.2449 48.302 82.5788 48.3934 82.7812 48.5659C82.9836 48.7384 83.0848 49.0327 83.0848 49.4386C83.105 49.5908 83.0949 49.7531 83.0645 49.9256ZM82.0729 50.017C82.083 49.8952 82.0931 49.814 82.0931 49.7633C82.1032 49.7125 82.1032 49.6618 82.1032 49.6212C82.1032 49.4386 82.0628 49.3168 81.9818 49.2559C81.9009 49.195 81.7491 49.1544 81.5164 49.1544H81.314C81.0307 49.1544 80.8485 49.2052 80.7575 49.3168C80.6664 49.4284 80.6057 49.6618 80.5551 50.017L80.4741 50.6968C80.4539 50.8592 80.4438 50.9911 80.4438 51.1027C80.4438 51.2752 80.4843 51.397 80.5652 51.4579C80.6462 51.5188 80.7979 51.5594 81.0205 51.5594H81.2229C81.5062 51.5594 81.6985 51.5086 81.7896 51.397C81.8806 51.2854 81.9413 51.0621 81.9919 50.707L82.0729 50.017Z" fill="white"/>
<path id="Vector_8" d="M86.9096 49.7227V49.743H85.9584L85.9685 49.7227C85.9685 49.6618 85.9685 49.611 85.9685 49.5806C85.9685 49.4284 85.928 49.3168 85.837 49.2457C85.7459 49.1848 85.6042 49.1443 85.4019 49.1443C85.1287 49.1443 84.9567 49.2051 84.8555 49.3269C84.7745 49.4284 84.7138 49.6618 84.6733 50.0068L84.5924 50.6867C84.5721 50.849 84.562 50.981 84.562 51.0926C84.562 51.2651 84.6025 51.3869 84.6834 51.4477C84.7644 51.5086 84.9061 51.5492 85.1287 51.5492C85.3715 51.5492 85.5334 51.4985 85.6346 51.4071C85.7358 51.3057 85.8066 51.1332 85.837 50.8896H86.8084C86.7477 51.4173 86.5858 51.8029 86.3429 52.0464C86.1001 52.29 85.7156 52.4117 85.2197 52.4117H84.8555C84.3799 52.4117 84.046 52.3204 83.8436 52.1479C83.6412 51.9754 83.54 51.6811 83.54 51.2651C83.54 51.123 83.5502 50.9607 83.5704 50.7882L83.6716 49.9358C83.7424 49.3371 83.9043 48.921 84.1472 48.6775C84.39 48.4339 84.7846 48.3122 85.3412 48.3122H85.6346C86.1102 48.3122 86.4441 48.3933 86.6364 48.5456C86.8387 48.6978 86.9399 48.9717 86.9399 49.3472C86.9399 49.4182 86.9399 49.469 86.9298 49.5197C86.9399 49.5502 86.9298 49.6212 86.9096 49.7227Z" fill="white"/>
<path id="Vector_9" d="M90.8048 52.3509H89.7828L89.6918 51.6304H88.346L88.0728 52.3509H87.0508L88.6495 48.3528H90.2078L90.8048 52.3509ZM89.6108 50.91L89.4084 49.0935H89.2465L88.5888 50.91H89.6108Z" fill="white"/>
<path id="Vector_10" d="M94.2553 51.5087L94.1541 52.3509H91.4019L91.8876 48.3528H92.8589L92.4744 51.5087H94.2553Z" fill="white"/>
<path id="Vector_11" d="M97.2104 51.397L97.0991 52.3509H96.3301L96.4414 51.397H97.2104Z" fill="white"/>
<path id="Vector_12" d="M103.322 49.4081L103.302 49.5299H102.33C102.33 49.398 102.29 49.3066 102.199 49.2457C102.108 49.1849 101.966 49.1646 101.764 49.1646H101.491C101.207 49.1646 101.015 49.2153 100.924 49.3269C100.833 49.4385 100.772 49.6719 100.722 50.017L100.641 50.6968C100.63 50.7882 100.62 50.8592 100.62 50.9302C100.61 50.9911 100.61 51.052 100.61 51.1027C100.61 51.2752 100.651 51.397 100.732 51.468C100.813 51.5289 100.964 51.5695 101.197 51.5695H101.491C101.713 51.5695 101.885 51.5391 101.986 51.468C102.088 51.397 102.148 51.2752 102.168 51.1027L102.199 50.8896H101.592L101.673 50.2301H103.211L103.13 50.8693C103.069 51.4072 102.907 51.7928 102.654 52.0465C102.401 52.29 102.017 52.4219 101.521 52.4219H100.792C100.033 52.4219 99.6489 51.9957 99.6489 51.1332C99.6489 51.0317 99.659 50.8896 99.6793 50.7374L99.7602 50.1184C99.8412 49.4994 100.013 49.0529 100.276 48.7587C100.539 48.4644 100.934 48.3223 101.45 48.3223H102.027C102.421 48.3223 102.725 48.4137 102.958 48.5963C103.19 48.779 103.302 49.0124 103.302 49.3066C103.322 49.3371 103.322 49.3777 103.322 49.4081Z" fill="white"/>
<path id="Vector_13" d="M107.329 49.9256L107.227 50.778C107.157 51.3767 106.995 51.7928 106.752 52.0363C106.509 52.2798 106.104 52.4016 105.558 52.4016H105.032C104.556 52.4016 104.222 52.3103 104.02 52.1378C103.817 51.9653 103.716 51.671 103.716 51.255C103.716 51.1129 103.726 50.9505 103.747 50.778L103.848 49.9256C103.919 49.3269 104.081 48.9109 104.323 48.6673C104.566 48.4238 104.961 48.302 105.517 48.302H106.044C106.509 48.302 106.843 48.3934 107.045 48.5659C107.248 48.7384 107.349 49.0327 107.349 49.4386C107.369 49.5908 107.359 49.7531 107.329 49.9256ZM106.337 50.017C106.347 49.8952 106.357 49.814 106.357 49.7633C106.367 49.7125 106.367 49.6618 106.367 49.6212C106.367 49.4386 106.327 49.3168 106.246 49.2559C106.165 49.195 106.013 49.1544 105.781 49.1544H105.578C105.295 49.1544 105.113 49.2052 105.022 49.3168C104.931 49.4284 104.87 49.6618 104.819 50.017L104.738 50.6968C104.718 50.8592 104.708 50.9911 104.708 51.1027C104.708 51.2752 104.748 51.397 104.829 51.4579C104.91 51.5188 105.062 51.5594 105.285 51.5594H105.487C105.77 51.5594 105.963 51.5086 106.054 51.397C106.145 51.2854 106.206 51.0621 106.256 50.707L106.337 50.017Z" fill="white"/>
<path id="Vector_14" d="M112.995 49.4081L112.975 49.5299H112.004C112.004 49.398 111.963 49.3066 111.872 49.2457C111.781 49.1849 111.639 49.1646 111.437 49.1646H111.164C110.881 49.1646 110.688 49.2153 110.597 49.3269C110.506 49.4385 110.445 49.6719 110.395 50.017L110.314 50.6968C110.304 50.7882 110.294 50.8592 110.294 50.9302C110.284 50.9911 110.284 51.052 110.284 51.1027C110.284 51.2752 110.324 51.397 110.405 51.468C110.486 51.5289 110.638 51.5695 110.87 51.5695H111.164C111.386 51.5695 111.559 51.5391 111.66 51.468C111.761 51.397 111.822 51.2752 111.842 51.1027L111.872 50.8896H111.265L111.346 50.2301H112.884L112.803 50.8693C112.742 51.4072 112.58 51.7928 112.328 52.0465C112.075 52.29 111.69 52.4219 111.194 52.4219H110.466C109.707 52.4219 109.322 51.9957 109.322 51.1332C109.322 51.0317 109.332 50.8896 109.353 50.7374L109.434 50.1184C109.515 49.4994 109.687 49.0529 109.95 48.7587C110.213 48.4644 110.607 48.3223 111.123 48.3223H111.7C112.095 48.3223 112.398 48.4137 112.631 48.5963C112.864 48.779 112.975 49.0124 112.975 49.3066C112.995 49.3371 112.995 49.3777 112.995 49.4081Z" fill="white"/>
<path id="Vector_15" d="M116.233 51.5087L116.132 52.3509H113.38L113.866 48.3528H114.837L114.452 51.5087H116.233Z" fill="white"/>
<path id="Vector_16" d="M120.311 49.9256L120.21 50.778C120.139 51.3767 119.977 51.7928 119.734 52.0363C119.491 52.2798 119.087 52.4016 118.54 52.4016H118.014C117.539 52.4016 117.205 52.3103 117.002 52.1378C116.8 51.9653 116.699 51.671 116.699 51.255C116.699 51.1129 116.709 50.9505 116.729 50.778L116.83 49.9256C116.901 49.3269 117.063 48.9109 117.306 48.6673C117.549 48.4238 117.943 48.302 118.5 48.302H119.026C119.491 48.302 119.825 48.3934 120.028 48.5659C120.23 48.7384 120.331 49.0327 120.331 49.4386C120.352 49.5908 120.331 49.7531 120.311 49.9256ZM119.319 50.017C119.33 49.8952 119.34 49.814 119.34 49.7633C119.35 49.7125 119.35 49.6618 119.35 49.6212C119.35 49.4386 119.309 49.3168 119.228 49.2559C119.147 49.195 118.996 49.1544 118.763 49.1544H118.561C118.277 49.1544 118.095 49.2052 118.004 49.3168C117.913 49.4284 117.852 49.6618 117.802 50.017L117.721 50.6968C117.7 50.8592 117.69 50.9911 117.69 51.1027C117.69 51.2752 117.731 51.397 117.812 51.4579C117.893 51.5188 118.045 51.5594 118.267 51.5594H118.47C118.753 51.5594 118.945 51.5086 119.036 51.397C119.127 51.2854 119.188 51.0621 119.239 50.707L119.319 50.017Z" fill="white"/>
<path id="Vector_17" d="M124.237 49.2457L124.207 49.5197C124.156 49.9459 123.923 50.1793 123.508 50.2199L123.498 50.2706C123.701 50.3112 123.842 50.3924 123.944 50.5243C124.045 50.6562 124.095 50.8085 124.095 51.0013C124.095 51.052 124.095 51.0824 124.095 51.1129L124.065 51.3564C124.014 51.742 123.873 52.016 123.64 52.1581C123.428 52.29 123.063 52.361 122.547 52.361H120.746L121.232 48.3629H123.053C123.478 48.3629 123.772 48.4137 123.964 48.5151C124.146 48.6166 124.237 48.8094 124.237 49.0732V49.1443C124.247 49.1646 124.247 49.195 124.237 49.2457ZM123.124 51.0216C123.124 51.0013 123.124 50.981 123.124 50.9404C123.124 50.7577 123.003 50.6562 122.77 50.6562H121.92L121.809 51.5391H122.659C122.922 51.5391 123.073 51.4173 123.104 51.1839L123.124 51.0216ZM123.245 49.4893C123.245 49.4791 123.256 49.4588 123.256 49.4487C123.256 49.4385 123.256 49.4183 123.256 49.4183C123.256 49.3269 123.225 49.2559 123.175 49.2153C123.124 49.1747 123.033 49.1544 122.911 49.1544H122.102L122.001 49.9967H122.81C123.063 49.9967 123.195 49.885 123.225 49.6516L123.245 49.4893Z" fill="white"/>
<path id="Vector_18" d="M128.153 52.3509H127.131L127.04 51.6304H125.694L125.421 52.3509H124.399L125.998 48.3528H127.556L128.153 52.3509ZM126.959 50.91L126.757 49.0935H126.595L125.937 50.91H126.959Z" fill="white"/>
<path id="Vector_19" d="M131.603 51.5087L131.502 52.3509H128.75L129.236 48.3528H130.207L129.823 51.5087H131.603Z" fill="white"/>
</g>
<g id="Vector_20">
<path d="M49.0047 42.4266C47.3958 42.4266 46.2018 42.6905 45.878 42.7919C41.5776 44.5272 39.6044 44.72 38.9669 44.72C38.7949 44.72 38.714 44.7098 38.714 44.7098H38.7038C38.2789 44.7098 38.0158 44.9737 37.8842 45.3187C37.4289 47.267 40.2722 47.6424 42.4478 47.6424C43.49 47.6424 44.3804 47.5511 44.6739 47.5207C43.6822 48.2107 42.5692 48.4339 41.5472 48.4339C39.8371 48.4339 38.3699 47.8048 38.1372 47.6627C32.9767 44.8316 32.4606 44.7809 32.0053 44.7809C29.3744 45.136 31.1148 46.3537 31.1148 46.3537C31.1148 46.3537 35.1623 49.3878 36.2652 50.0677C39.0884 52.0465 41.7395 52.5944 43.8138 52.5944C46.0298 52.5944 47.5881 51.9754 47.9827 51.8232C51.9897 50.1184 56.7252 47.3786 58.0407 46.2928C55.258 43.1167 51.5951 42.4266 49.0047 42.4266Z" fill="#303030"/>
<path d="M38.4978 45.2742C38.5401 45.24 38.5975 45.2123 38.691 45.21C38.7055 45.2112 38.7237 45.2126 38.7456 45.214C38.7977 45.2171 38.8711 45.22 38.9669 45.22C39.6931 45.22 41.7287 45.0035 46.0451 43.2637C46.345 43.1738 47.4733 42.9266 49.0047 42.9266C51.4025 42.9266 54.6993 43.5363 57.3011 46.2273C56.5522 46.7634 55.289 47.5442 53.777 48.3895C51.9413 49.4157 49.7754 50.5166 47.7947 51.3598C47.7896 51.3618 47.7844 51.3638 47.7789 51.3659C47.3667 51.5253 45.8946 52.0944 43.8138 52.0944C41.833 52.0944 39.284 51.573 36.5522 49.6583L36.5402 49.6498L36.5276 49.6421C35.9975 49.3153 34.7291 48.4013 33.5722 47.5526C32.9985 47.1317 32.459 46.7319 32.0629 46.4372C31.8649 46.2899 31.7027 46.169 31.5902 46.0849L31.4602 45.9876L31.4262 45.9623L31.4176 45.9558L31.4154 45.9542L31.4149 45.9538L31.4148 45.9537L31.1148 46.3537L31.4147 45.9536L31.4082 45.9487L31.4025 45.9448L31.403 45.9451C31.4031 45.9452 31.4028 45.945 31.4022 45.9445L31.3944 45.9388C31.3865 45.9329 31.3738 45.9233 31.3577 45.9104C31.325 45.8842 31.2805 45.8464 31.2341 45.8009C31.1405 45.7092 31.0823 45.6276 31.0592 45.5745C31.0616 45.5725 31.0642 45.5704 31.0671 45.5681C31.1631 45.4919 31.4275 45.3666 32.0385 45.281C32.1138 45.2818 32.185 45.2867 32.3068 45.3177C32.461 45.3568 32.7006 45.4392 33.105 45.6176C33.9134 45.9742 35.3138 46.6842 37.8885 48.0966C38.0688 48.2031 38.5351 48.4056 39.1502 48.5822C39.7915 48.7663 40.6334 48.9339 41.5472 48.9339C42.6399 48.9339 43.8615 48.6951 44.9595 47.9311L44.6223 47.0233C44.3332 47.0533 43.4635 47.1424 42.4478 47.1424C41.3717 47.1424 40.1903 47.0474 39.3506 46.7414C38.9315 46.5887 38.6512 46.4022 38.4964 46.1999C38.3635 46.0262 38.2928 45.8029 38.3634 45.467C38.4036 45.3729 38.4519 45.3112 38.4978 45.2742ZM31.0391 45.5948C31.039 45.5948 31.0393 45.5945 31.0398 45.5938L31.0391 45.5948Z" stroke="white" stroke-opacity="0.28"/>
</g>
<path id="Vector_21" d="M72.3686 43.0862L71.9133 46.7495H59.9429L62.0678 29.3668H66.2873L64.6177 43.0862H72.3686Z" fill="url(#paint0_linear_407_816)"/>
<path id="Vector_22" d="M88.6801 36.2062L88.2247 39.9101C87.911 42.5078 87.2128 44.3344 86.1504 45.3897C85.0879 46.445 83.3576 46.9727 80.9494 46.9727H78.6626C76.6085 46.9727 75.1514 46.5972 74.2913 45.8362C73.4211 45.0751 72.9961 43.7965 72.9961 42.0004C72.9961 41.3814 73.0467 40.6813 73.1378 39.9202L73.5931 36.2164C73.9068 33.6186 74.605 31.7921 75.6674 30.7367C76.7299 29.6814 78.4602 29.1537 80.8381 29.1537H83.1249C85.1588 29.1537 86.6158 29.5292 87.4962 30.2902C88.3765 31.0513 88.8217 32.3197 88.8217 34.1057C88.8217 34.7348 88.7711 35.435 88.6801 36.2062ZM84.3594 36.5817C84.41 36.0743 84.4403 35.709 84.4707 35.4959C84.4909 35.2828 84.5112 35.0697 84.5112 34.8668C84.5112 34.0854 84.329 33.5577 83.9749 33.2736C83.6207 32.9996 82.9428 32.8575 81.9612 32.8575H81.1012C79.8768 32.8575 79.0673 33.0909 78.6828 33.5679C78.2882 34.0347 78.0048 35.0494 77.8126 36.5918L77.4584 39.5549C77.3674 40.2551 77.3168 40.8335 77.3168 41.3003C77.3168 42.0512 77.4989 42.5687 77.8531 42.8427C78.2072 43.1167 78.8751 43.2587 79.8464 43.2587H80.7065C81.9511 43.2587 82.7606 43.0253 83.1553 42.5585C83.5398 42.0918 83.8332 41.0872 84.0255 39.5549L84.3594 36.5817Z" fill="url(#paint1_linear_407_816)"/>
<path id="Vector_23" d="M103.959 35.3133V35.4046H99.8108L99.8311 35.3336C99.8311 35.0494 99.8311 34.8363 99.8311 34.7146C99.8311 34.0448 99.6388 33.5679 99.2644 33.2838C98.89 32.9996 98.2627 32.8576 97.3924 32.8576C96.2288 32.8576 95.4395 33.1214 95.0247 33.6491C94.6806 34.1159 94.4074 35.09 94.2253 36.5918L93.8711 39.5549C93.7801 40.2551 93.7295 40.8335 93.7295 41.3003C93.7295 42.0512 93.9015 42.5687 94.2455 42.8427C94.5896 43.1167 95.227 43.2587 96.1681 43.2587C97.2002 43.2587 97.9389 43.0456 98.3841 42.6296C98.8293 42.2034 99.1126 41.4525 99.2442 40.3667H103.484C103.201 42.6803 102.523 44.3547 101.45 45.3999C100.377 46.445 98.7483 46.9626 96.5526 46.9626H94.9741C92.92 46.9626 91.4629 46.5871 90.6028 45.8261C89.7326 45.065 89.3076 43.7864 89.3076 41.9903C89.3076 41.3713 89.3582 40.6711 89.4493 39.9101L89.9046 36.2062C90.2183 33.6085 90.9165 31.7819 91.9789 30.7266C93.0414 29.6713 94.7717 29.1436 97.1496 29.1436H98.4246C100.479 29.1436 101.936 29.4785 102.796 30.1583C103.666 30.8382 104.091 31.995 104.091 33.6389C104.091 33.9433 104.081 34.1869 104.061 34.3695C104.051 34.5522 104.02 34.8668 103.959 35.3133Z" fill="url(#paint2_linear_407_816)"/>
<path id="Vector_24" d="M119.431 46.7495H114.968L114.564 43.6139H108.725L107.561 46.7495H103.099L110.061 29.3668H116.83L119.431 46.7495ZM114.26 40.4783L113.4 32.5633H112.712L109.848 40.4783H114.26Z" fill="url(#paint3_linear_407_816)"/>
<path id="Vector_25" d="M133 43.0862L132.545 46.7495H120.574L122.699 29.3668H126.919L125.249 43.0862H133Z" fill="url(#paint4_linear_407_816)"/>
<path id="Vector_26" d="M46.627 39.6868H51.2208L51.0185 41.3104C51.0083 41.4119 50.9881 41.5032 50.978 41.6047C52.9613 41.8584 55.2177 42.5687 57.2415 44.2126C57.717 42.863 58.0611 41.3206 58.2634 39.5651L58.8807 34.7044H47.2442L46.627 39.6868Z" fill="url(#paint5_linear_407_816)"/>
<path id="Vector_27" d="M57.0492 22.3854C55.2986 20.985 52.941 20.2848 49.9863 20.2848H49.2274C48.762 19.1889 48.3572 18.0727 47.9929 16.9463C47.2138 14.5515 46.637 12.0958 46.2728 9.59952C46.0906 8.36153 45.9591 7.10324 45.8781 5.84495C45.7972 4.58666 45.7769 3.31823 45.8073 2.05994C45.8174 1.63375 45.8377 1.20755 45.8579 0.791504C45.4329 0.761061 45.0079 0.740766 44.5931 0.710324C44.2693 0.690029 43.9455 0.669734 43.6115 0.649439C43.1764 0.618997 42.7515 0.598702 42.3265 0.568259C41.5676 0.527669 40.8087 0.476932 40.0599 0.436342C38.5522 0.345015 37.0344 0.28413 35.5267 0.213097C34.0089 0.16236 32.5012 0.0913274 30.9834 0.0608849C29.4656 0.020295 27.9478 0.0101475 26.4401 0C26.0151 0 25.5902 0 25.1652 0C25.1551 0.639292 25.1449 1.26844 25.1449 1.89758C25.1551 3.6328 25.236 5.35787 25.3878 7.08295C25.5396 8.79787 25.7723 10.5026 26.0759 12.1871C26.6729 15.5561 27.5734 18.854 28.7371 22.0505C29.324 23.6436 29.9716 25.2165 30.69 26.7488C31.4185 28.281 32.1977 29.7829 33.0476 31.2441C33.0982 31.3354 33.1488 31.4268 33.2095 31.5181C33.0679 32.2487 32.9363 33.0301 32.8453 33.8419L32.8351 33.9332C32.5923 33.6592 32.3494 33.3954 32.1066 33.1112C31.0239 31.853 29.9918 30.5439 29.0204 29.2045C28.0389 27.8751 27.1181 26.4951 26.2479 25.0947C24.5075 22.2839 22.9998 19.3513 21.7147 16.307C21.0772 14.7849 20.5005 13.2323 19.9743 11.6595C19.6505 10.6853 19.3469 9.701 19.0737 8.70654C20.1463 8.42241 21.2189 8.13828 22.2915 7.84401C22.8581 7.69179 23.4349 7.52943 24.0015 7.36707C23.7789 6.01746 23.6069 4.78961 23.4754 3.72413C22.767 3.88649 22.0587 4.04885 21.3605 4.2315C19.8832 4.58666 18.416 4.96212 16.9488 5.34772C16.5441 5.45935 16.1292 5.57097 15.7244 5.67244C15.8762 6.29144 16.028 6.90029 16.2 7.50914C16.6554 9.18347 17.1815 10.8274 17.7785 12.451C18.3654 14.0644 19.0332 15.6576 19.7618 17.2C21.2088 20.3051 22.9289 23.258 24.8717 26.0385C25.8532 27.4287 26.8854 28.7681 27.9681 30.067C29.0609 31.3557 30.2043 32.6039 31.4084 33.8013C31.8334 34.2275 32.2685 34.6435 32.7137 35.0596L32.4911 36.8455C31.9852 36.5208 31.4792 36.1859 30.9834 35.8511C29.6073 34.9073 28.2817 33.923 26.9967 32.8779C25.7015 31.8428 24.4569 30.757 23.2629 29.6205C20.8647 27.3576 18.6386 24.9121 16.6149 22.3042C15.603 21.0053 14.6417 19.6557 13.7311 18.2655C13.1644 17.4029 12.618 16.5303 12.1019 15.6474C13.0632 15.0995 14.0245 14.5413 14.9858 13.9731C15.5018 13.6788 16.0078 13.3744 16.5137 13.0598C15.947 11.8117 15.4715 10.6752 15.0667 9.67055C14.4292 10.0156 13.7817 10.3504 13.1543 10.7056C11.8186 11.4261 10.5032 12.177 9.18777 12.9279C8.82349 13.141 8.4491 13.3541 8.08483 13.5672C8.38839 14.1253 8.69195 14.6733 9.01575 15.2111C9.88596 16.7129 10.827 18.164 11.8085 19.5745C12.8001 20.985 13.8525 22.3448 14.9453 23.6538C17.1512 26.2718 19.5695 28.6768 22.17 30.8585C23.4754 31.9443 24.8211 32.9793 26.1973 33.9433C27.5835 34.9074 29.0204 35.8105 30.4775 36.6527C31.1048 37.018 31.7524 37.363 32.4 37.7081L32.2988 38.53C32.2685 38.7938 32.2483 39.0374 32.2179 39.2809C31.6715 39.1084 31.1352 38.9258 30.5989 38.7431C29.0305 38.1951 27.4925 37.5761 25.9848 36.9064C24.467 36.2468 22.9897 35.5162 21.5326 34.7348C18.6285 33.1721 15.856 31.3862 13.2251 29.3973C11.9097 28.4028 10.6347 27.3475 9.40026 26.2515C8.63124 25.5717 7.88246 24.8715 7.14379 24.1409C7.93305 23.3595 8.72231 22.5782 9.49133 21.7765C9.90619 21.3605 10.3211 20.9343 10.7258 20.5081C9.8556 19.4527 9.0967 18.4786 8.4491 17.616C7.91281 18.1133 7.38664 18.6105 6.87059 19.1179C5.76765 20.1631 4.68495 21.2285 3.61237 22.294C3.30881 22.5985 3.01537 22.8927 2.71181 23.1972C3.14691 23.6538 3.59213 24.1003 4.03736 24.5468C5.27184 25.7645 6.54679 26.9314 7.86222 28.0375C9.17765 29.1436 10.5437 30.1786 11.9502 31.1629C14.753 33.1214 17.7077 34.816 20.7838 36.2468C22.3218 36.9571 23.8902 37.6066 25.4789 38.185C27.0675 38.7532 28.6865 39.2606 30.3156 39.697C30.9227 39.8593 31.5399 40.0115 32.1572 40.1536C32.1167 40.6711 32.1066 41.1278 32.1066 41.5438C32.1066 41.6148 32.1066 41.6859 32.1066 41.7569C31.7221 41.7366 31.3477 41.7163 30.9632 41.6859C29.3037 41.5641 27.6645 41.3713 26.0253 41.1075C24.3962 40.8639 22.767 40.5392 21.1683 40.1637C17.9607 39.4128 14.8138 38.4082 11.7579 37.1601C10.23 36.5411 8.73243 35.8511 7.24498 35.1103C6.32418 34.6537 5.42362 34.1666 4.52305 33.6592C5.0897 32.6952 5.64623 31.7413 6.18252 30.7672C6.47596 30.2497 6.75928 29.7321 7.05272 29.2146C5.93967 28.413 4.95816 27.6722 4.10819 27.0126C3.72368 27.6316 3.33917 28.2506 2.96478 28.8696C2.17552 30.1685 1.39638 31.4674 0.637477 32.7865C0.424985 33.1518 0.212492 33.5171 0 33.8926C0.53629 34.2173 1.0827 34.542 1.62911 34.8566C3.13679 35.7192 4.66471 36.5107 6.22299 37.2311C7.78127 37.9617 9.3699 38.601 10.9788 39.1896C14.1864 40.3566 17.4851 41.2292 20.8243 41.8076C22.4938 42.0918 24.1735 42.315 25.8532 42.4571C27.5329 42.5991 29.2228 42.66 30.9126 42.66C31.3173 42.66 31.712 42.66 32.1167 42.6499C32.137 43.0659 32.1673 43.4617 32.2179 43.8371C32.8048 43.8777 33.6143 44.1416 36.9332 45.9174C36.913 45.684 36.9332 45.41 36.9939 45.1157L37.004 45.065L37.0243 45.0142C37.3076 44.243 37.9451 43.7763 38.7343 43.7763H38.7546L38.795 43.7661L38.8861 43.7864C38.9064 43.7864 38.9367 43.7864 38.9873 43.7864C39.129 43.7864 39.4022 43.7763 39.8474 43.7052C39.473 43.1877 39.2807 42.4063 39.2807 41.3713C39.2807 41.0161 39.301 40.5899 39.3415 40.1029C39.3819 39.6158 39.4426 39.0475 39.5236 38.3778L40.1408 33.2229C40.4747 30.5642 40.9807 28.8189 41.6586 27.9969C42.3366 27.1648 43.7431 26.7488 45.9085 26.7488H47.9322C49.45 26.7488 50.553 26.9619 51.2309 27.3881C51.9089 27.8143 52.2428 28.5246 52.2428 29.5292H54.0743H54.3373H59.5788L59.7002 28.6159V27.7432C59.68 25.5615 58.7997 23.7857 57.0492 22.3854ZM45.5948 20.2848C41.6991 20.2848 38.7444 21.3808 36.7308 23.5625C35.3142 25.0947 34.2518 27.246 33.5536 29.996C32.9667 28.7478 32.4304 27.4794 31.9447 26.1907C31.3477 24.6482 30.8114 23.0855 30.3358 21.5025C29.3847 18.3365 28.6764 15.1096 28.221 11.832C27.9984 10.1982 27.8365 8.55433 27.7353 6.89014C27.6746 5.86525 27.6341 4.84035 27.624 3.80531C28.7371 3.81545 29.8501 3.81545 30.9531 3.80531C32.4709 3.80531 33.9887 3.75457 35.4964 3.73427C37.004 3.68354 38.5218 3.64295 40.0396 3.58206C40.7985 3.55162 41.5473 3.52118 42.3062 3.49074C42.6503 3.48059 43.0044 3.46029 43.3485 3.44C43.3889 4.31268 43.4496 5.18537 43.5306 6.0479C43.6723 7.37722 43.8645 8.68625 44.1276 9.98513C44.6436 12.5727 45.4127 15.1096 46.4144 17.5349C46.7989 18.4684 47.2239 19.3918 47.6691 20.2848H45.5948Z" fill="url(#paint6_linear_407_816)"/>
<path id="Vector_28" d="M8.49968 30.2395C7.98363 31.2745 7.45746 32.3096 6.94141 33.3548C12.4359 36.125 18.3047 37.982 24.3253 38.9055C18.0517 36.3381 12.5978 33.0707 8.49968 30.2395Z" fill="url(#paint7_linear_407_816)"/>
<path id="Vector_29" d="M26.6225 30.1177C22.4637 24.7497 19.3775 19.1787 17.2323 14.6834C16.271 15.3227 15.2997 15.962 14.3384 16.6013C17.718 21.7562 21.8768 26.3124 26.6225 30.1177Z" fill="url(#paint8_linear_407_816)"/>
<path id="Vector_30" d="M37.328 10.594C35.1828 10.8071 33.6549 13.2323 33.9281 16.0127C34.2013 18.7932 36.1643 20.8835 38.3196 20.6704C40.4648 20.4573 41.9927 18.0321 41.7195 15.2517C41.4362 12.4713 39.4731 10.3809 37.328 10.594Z" fill="url(#paint9_linear_407_816)"/>
</g>
<defs>
<linearGradient id="paint0_linear_407_816" x1="65.3776" y1="-1.22545" x2="66.2482" y2="49.9964" gradientUnits="userSpaceOnUse">
<stop stop-color="#006838"/>
<stop offset="1" stop-color="#8DC63F"/>
</linearGradient>
<linearGradient id="paint1_linear_407_816" x1="80.2358" y1="-1.478" x2="81.1064" y2="49.7438" gradientUnits="userSpaceOnUse">
<stop stop-color="#006838"/>
<stop offset="1" stop-color="#8DC63F"/>
</linearGradient>
<linearGradient id="paint2_linear_407_816" x1="96.0303" y1="-1.74644" x2="96.9009" y2="49.4754" gradientUnits="userSpaceOnUse">
<stop stop-color="#006838"/>
<stop offset="1" stop-color="#8DC63F"/>
</linearGradient>
<linearGradient id="paint3_linear_407_816" x1="110.443" y1="-1.99144" x2="111.313" y2="49.2304" gradientUnits="userSpaceOnUse">
<stop stop-color="#006838"/>
<stop offset="1" stop-color="#8DC63F"/>
</linearGradient>
<linearGradient id="paint4_linear_407_816" x1="125.99" y1="-2.2557" x2="126.861" y2="48.9662" gradientUnits="userSpaceOnUse">
<stop stop-color="#006838"/>
<stop offset="1" stop-color="#8DC63F"/>
</linearGradient>
<linearGradient id="paint5_linear_407_816" x1="52.1167" y1="-1.00004" x2="52.9874" y2="50.2218" gradientUnits="userSpaceOnUse">
<stop stop-color="#006838"/>
<stop offset="1" stop-color="#8DC63F"/>
</linearGradient>
<linearGradient id="paint6_linear_407_816" x1="29.2943" y1="-0.612117" x2="30.1649" y2="50.6097" gradientUnits="userSpaceOnUse">
<stop stop-color="#006838"/>
<stop offset="1" stop-color="#8DC63F"/>
</linearGradient>
<linearGradient id="paint7_linear_407_816" x1="15.0189" y1="-0.369481" x2="15.8896" y2="50.8524" gradientUnits="userSpaceOnUse">
<stop stop-color="#07956B"/>
<stop offset="1" stop-color="#ADE3BF" stop-opacity="0.75"/>
</linearGradient>
<linearGradient id="paint8_linear_407_816" x1="20.0803" y1="-0.4555" x2="20.951" y2="50.7663" gradientUnits="userSpaceOnUse">
<stop stop-color="#006838"/>
<stop offset="1" stop-color="#8DC63F"/>
</linearGradient>
<linearGradient id="paint9_linear_407_816" x1="37.5423" y1="-0.7523" x2="38.4129" y2="50.4695" gradientUnits="userSpaceOnUse">
<stop stop-color="#006838"/>
<stop offset="1" stop-color="#8DC63F"/>
</linearGradient>
</defs>
</svg>
