<svg width="49" height="48" viewBox="0 0 49 48" fill="none" xmlns="http://www.w3.org/2000/svg">
<g id="mdi:head-heart-outline">
<path id="Vector" d="M26.3333 6C34.0933 6 40.3333 12.28 40.3333 20C40.3333 25.6 37.0733 30.38 32.3333 32.62V42H18.3333V36H16.3333C14.1133 36 12.3333 34.22 12.3333 32V26H9.33333C8.49333 26 8.01333 25 8.49333 24.38L12.3333 19.32C12.5095 15.7266 14.0618 12.3388 16.6683 9.8589C19.2748 7.379 22.7356 5.99722 26.3333 6ZM26.3333 2C17.1533 2 9.55333 8.84 8.45333 17.8L5.33333 22H5.27333L5.23333 22.06C4.13333 23.58 3.99333 25.58 4.85333 27.24C5.57333 28.62 6.85333 29.58 8.33333 29.88V32C8.33333 35.7 10.8933 38.84 14.3333 39.74V46H36.3333V35C41.3333 31.66 44.3333 26.12 44.3333 20C44.3333 10.06 36.2533 2 26.3333 2ZM34.3333 17.66C34.3333 20.74 31.6133 23.2 27.4933 26.94L26.3333 28L25.1733 26.94C21.0533 23.2 18.3333 20.74 18.3333 17.66C18.3333 15.26 20.2533 13.28 22.6533 13.26H22.7333C24.1133 13.26 25.4333 13.88 26.3333 14.92C27.2333 13.88 28.5533 13.26 29.9333 13.26C32.3333 13.24 34.3333 15.18 34.3333 17.58V17.66Z" fill="white"/>
</g>
</svg>
