<svg width="49" height="48" viewBox="0 0 49 48" fill="none" xmlns="http://www.w3.org/2000/svg">
<g id="tabler:mood-heart">
<g id="Group">
<path id="Vector" d="M42.667 23.9999C42.6668 20.3556 41.5605 16.7971 39.4942 13.7951C37.4279 10.7931 34.499 8.48901 31.0949 7.18758C27.6908 5.88615 23.9718 5.64867 20.4299 6.50655C16.8879 7.36443 13.6897 9.27724 11.2584 11.992C8.82703 14.7068 7.27701 18.0957 6.81331 21.7105C6.3496 25.3252 6.99407 28.9956 8.66146 32.2362C10.3289 35.4768 12.9406 38.1349 16.1514 39.859C19.3622 41.5831 23.0206 42.292 26.643 41.8919M18.667 19.9999H18.687M30.667 19.9999H30.687" stroke="white" stroke-width="4" stroke-linecap="round" stroke-linejoin="round"/>
<path id="Vector_2" d="M19.667 30C20.3992 30.7036 21.2722 31.2439 22.2286 31.5852C23.1849 31.9265 24.2028 32.061 25.215 31.98M38.655 43L43.691 37.84C44.316 37.1927 44.6659 36.3284 44.6674 35.4286C44.6689 34.5288 44.3218 33.6634 43.699 33.014C43.396 32.6975 43.0323 32.4454 42.6295 32.2728C42.2267 32.1003 41.7933 32.0109 41.3551 32.0099C40.917 32.009 40.4831 32.0966 40.0796 32.2674C39.6761 32.4382 39.3113 32.6888 39.007 33.004L38.671 33.348L38.335 33.004C38.0319 32.6876 37.668 32.4356 37.2652 32.2633C36.8624 32.0909 36.4289 32.0017 35.9907 32.0009C35.5525 32.0002 35.1187 32.088 34.7153 32.2589C34.3119 32.4299 33.9472 32.6806 33.643 32.996C33.0186 33.6432 32.669 34.5071 32.6675 35.4064C32.666 36.3057 33.0127 37.1707 33.635 37.82L38.655 43Z" stroke="white" stroke-width="2" stroke-linecap="round" stroke-linejoin="round"/>
</g>
</g>
</svg>
