<svg width="24" height="25" viewBox="0 0 24 25" fill="none" xmlns="http://www.w3.org/2000/svg">
<g id="Icon / Twitter">
<path id="Vector" d="M20.9727 7.09631C20.5083 7.71583 19.9469 8.25624 19.3102 8.69667C19.3102 8.8585 19.3102 9.02033 19.3102 9.19116C19.3153 12.13 18.1414 14.948 16.0517 17.0134C13.9619 19.0788 11.1311 20.2188 8.19393 20.1778C6.49587 20.1835 4.81955 19.7958 3.2963 19.045C3.21416 19.0091 3.16119 18.9279 3.1615 18.8382V18.7393C3.1615 18.6102 3.26611 18.5056 3.39515 18.5056C5.0643 18.4505 6.6739 17.8718 7.99622 16.8513C6.48541 16.8208 5.12607 15.9258 4.50048 14.5496C4.46889 14.4745 4.47872 14.3882 4.52645 14.3221C4.57417 14.256 4.65288 14.2196 4.73413 14.226C5.1933 14.2721 5.65706 14.2294 6.10008 14.1001C4.43227 13.7539 3.17909 12.3693 2.99974 10.6746C2.99337 10.5933 3.0298 10.5146 3.09588 10.4668C3.16195 10.4191 3.24812 10.4092 3.32326 10.4409C3.77082 10.6384 4.25397 10.7424 4.74312 10.7465C3.28172 9.78737 2.65049 7.96296 3.20643 6.30513C3.26382 6.14404 3.40169 6.02503 3.56938 5.99185C3.73706 5.95866 3.90984 6.01619 4.0242 6.1433C5.99627 8.24216 8.70592 9.49287 11.5818 9.6317C11.5082 9.33776 11.472 9.03567 11.474 8.73263C11.5009 7.14363 12.4841 5.72812 13.9633 5.14878C15.4424 4.56945 17.1248 4.94094 18.2229 6.08935C18.9713 5.94676 19.6949 5.69536 20.3706 5.34312C20.4201 5.31222 20.4829 5.31222 20.5324 5.34312C20.5633 5.39264 20.5633 5.45543 20.5324 5.50495C20.2051 6.25443 19.6522 6.88303 18.9508 7.3031C19.565 7.23187 20.1684 7.08698 20.7481 6.87155C20.7969 6.83833 20.861 6.83833 20.9098 6.87155C20.9507 6.89025 20.9813 6.92602 20.9934 6.96933C21.0055 7.01264 20.9979 7.05909 20.9727 7.09631Z" fill="white"/>
</g>
</svg>
